<?xml version="1.0" encoding="UTF-8"?>
<svg xmlns="http://www.w3.org/2000/svg" version="1.1" viewBox="0 0 7680 1080">
  <!-- Generator: Adobe Illustrator 29.5.0, SVG Export Plug-In . SVG Version: 2.1.0 Build 137)  -->
  <defs>
    <style>
      .st0 {
        fill: #c6dfeb;
      }

      .st1 {
        fill: #e3f3f3;
      }

      .st2 {
        fill: #94d9f8;
      }

      .st3 {
        fill: #fffefb;
      }
    </style>
  </defs>
  <g id="Warstwa_1">
    <rect class="st2" x="-75.47" y="-1.74" width="7755.47" height="1081.74"/>
  </g>
  <g id="Warstwa_2">
    <g id="Obiekt_generatywny">
      <g>
        <path class="st0" d="M3061.91,882.64c22.13-.21,46.31-12.56,67.85,0-283.78,47.07-585.98,38.37-873.25,32.49-4.98-.1-14.23-8.84-15.08-8.86-3.56-.07-15.35,8.92-17.59,8.86-99.28-2.57-177.03-9.76-275.17-23.63.25-9.39-3.01-10.65,6.28-11.81,12.39-1.55,45.2,8.31,60.31,8.86,53.78,1.95,143.29,2.82,193.5-14.77,6.57-2.3,26.09-18,27.64-17.72,4.13.75-5.12,9.14,2.51,14.77,13,9.59,103.12,17.49,120.62,14.77,9.83-1.53,26.12-14.79,27.64-14.77s19.23,13.79,27.64,14.77c43.68,5.09,122.22,3.18,140.72-53.16,9.09,20.47.99,29.66-5.03,47.26,12.14,5.27,31.58-6.17,40.21-5.91,16.14.49,33.64,8.98,55.28,5.91,16.64-2.36,57.11-30.28,60.31-29.54,1.31.31,12.23,20.62,20.1,20.68l2.51-11.81c1.04,5.31,6.63,7.69,10.05,8.86,69.63,23.8,146.81,5.83,216.11,8.86,37.31,1.63,69.7,6.26,106.8,5.91Z"/>
        <path class="st3" d="M3129.76,882.64c-21.54-12.56-45.72-.21-67.85,0,13.1-13.54-26.21-30.62-33.92-32.49-41-9.91-47.59,31.41-59.05-33.97l-47.75-56.12c50.91-53.47-29.73-103.29-72.88-63.5-3.16-6.58-10.44-16.1-17.59-16.24l17.59,28.06c19.06,48.96,29.44,98.35-28.9,112.24,48.32-59.97,22.47-150.51-55.28-127-4.16-7.4,2.25-11.56,6.28-14.77,16.15-12.81,30.74-.79,38.95-2.95,5.79-1.52,26.1-20.92,32.67-23.63,71.63-29.5,134.42,17.83,106.8,107.81,36.58,3.57,49.07,28.88,54.03,69.41,23.57-11.73,49.37-15.9,69.11,7.38,3.02,3.56,4.43,20.01,8.8,22.15,16.17,7.96,85.29-1.35,108.06,11.81,3.77,7.49-1.42,5.14-5.03,5.91-15.75,3.36-36.93,3.07-54.03,5.91Z"/>
        <path class="st3" d="M2380.9,672.94c11.5,3.04,11.39,24.6,7.54,31.01-2.08,3.46-46.31,2.39-62.82,35.44-11.25,22.51-3.3,48.53-16.33,69.41-5.95-3.85.43-17.24-1.26-25.11-9.02-42.03-85.56-26.59-109.31-10.34-14.98,10.25-28.08,40-30.16,41.35-2.86,1.86-52.68-5.69-65.34-2.95-7.94,1.72-16.51,14.74-17.59,14.77-1.88.05-.59-5.75-2.51-5.91-12.49-1-33.7-11.59-37.69-11.81-29.83-1.64-65.95,67.41-77.9,70.89-16.47,4.8-60.03-10.99-79.16,0-30.63-3.61-60.95-3.41-91.72-2.95,16.45-11.41,50.91-17.97,72.88-20.68,16.47-2.03,98.39-.31,103.03-2.95,1.77-1.01,8.68-28.95,13.82-36.92,10.48-16.23,41.6-31.12,59.05-28.06,7.72,1.35,23.69,18.05,25.13,17.72,1.62-.37,12.04-24.13,17.59-29.54,42.36-41.24,68.81,12.92,72.88,11.81,1.74-.47,13.88-25.23,22.62-32.49,37.76-31.36,92.42-30.13,128.16,2.95-9.31-53.01,21.17-98.34,69.11-85.65Z"/>
        <g>
          <path class="st1" d="M2770.41,678.85c-4.04,3.2-10.44,7.36-6.28,14.77,77.76-23.51,103.6,67.04,55.28,127,58.34-13.88,47.96-63.27,28.9-112.24-.21-.54,5.12-1.16,0-11.81,43.15-39.79,123.78,10.03,72.88,63.5l47.75,56.12c11.46,65.38,18.06,24.06,59.05,33.97,7.72,1.87,47.03,18.95,33.92,32.49-37.1.35-69.49-4.28-106.8-5.91-69.31-3.03-146.48,14.94-216.11-8.86-3.42-1.17-9.01-3.55-10.05-8.86l-2.51,11.81c-7.87-.05-18.79-20.37-20.1-20.68-3.2-.75-43.67,27.17-60.31,29.54-21.65,3.07-39.15-5.42-55.28-5.91-8.63-.26-28.06,11.17-40.21,5.91,6.01-17.6,14.11-26.79,5.03-47.26-18.5,56.35-97.04,58.26-140.72,53.16-8.41-.98-26.12-14.75-27.64-14.77s-17.82,13.24-27.64,14.77c-17.5,2.72-107.63-5.18-120.62-14.77-7.63-5.63,1.62-14.02-2.51-14.77-1.56-.28-21.07,15.42-27.64,17.72-50.2,17.59-139.71,16.72-193.5,14.77-15.11-.55-47.92-10.41-60.31-8.86-9.29,1.16-6.03,2.42-6.28,11.81-19.95-2.82-40.29-9.46-60.31-11.81,19.13-10.99,62.69,4.8,79.16,0,11.95-3.48,48.07-72.53,77.9-70.89,3.99.22,25.2,10.82,37.69,11.81,1.92.15.64,5.96,2.51,5.91,1.08-.03,9.65-13.05,17.59-14.77,12.66-2.74,62.48,4.82,65.34,2.95,2.08-1.35,15.18-31.1,30.16-41.35,23.75-16.25,100.3-31.69,109.31,10.34,1.69,7.86-4.69,21.25,1.26,25.11,13.03-20.88,5.09-46.9,16.33-69.41,16.51-33.06,60.75-31.99,62.82-35.44,3.85-6.41,3.96-27.97-7.54-31.01-8.65-49.13,39.79-66.1,72.88-57.59-40.98-85.85,37.61-165.15,104.29-181.65,146.96-36.36,235.41,77.66,212.34,245.15Z"/>
          <path class="st1" d="M2540.48,540.03c17.67-3.1,48.89,3.76,62.82,17.72,16.36,16.39,44.82,76.05,56.54,98.94l-40.21-44.3c-4.62-53.34-57.59-67.8-96.75-57.59,2.11-14.11,14.08-8.61,15.08-8.86,2.05-.52.49-5.55,2.51-5.91Z"/>
        </g>
        <path class="st0" d="M2848.31,696.57c5.12,10.65-.21,11.28,0,11.81l-17.59-28.06c7.15.14,14.43,9.67,17.59,16.24Z"/>
      </g>
      <g>
        <path class="st3" d="M1708.48,407.03c1.41-13.75-22.62-8.85-31.41-11.81-14.91-5.02-22.17-14.44-36.44-14.77l-17.59-10.34c-.65-1.4,18.54-10.65,11.31-19.2-15.92-4.12-28.67-6.43-45.23-5.91-.83.03-4.58,6.22-5.03,5.91-3.25-2.32-2.89-69.45-47.75-50.21-13.13,5.63-21.27,45.68-35.18,23.63,39.4-54.15-39.79-89.6-66.59-39.87-8.65,16.04-4.52,31.89-13.82,45.78-6.58,2.18-10.32-28.16-25.13-32.49-24.69-7.21-45.17,15.1-47.75,14.77-3.2-.41-12.28-21.68-35.18-14.77-13.4,4.04-12.06,27.56-17.59,26.58-25.53-79.39-109.08-14.7-92.98,56.12-23.14-30.33-28.16-8.01-43.98,2.95-41.72,28.92-41.36,2.9-74.13,5.91-8.11.74-33.23,20.02-46.49,14.77.68-11.44,34.71-44.41,43.98-47.26,7.86-2.41,19.24,4.04,22.62,2.95,6.35-2.05,39.52-56.49,70.36-26.58,5.95-65.59,85.43-110.47,123.13-53.16,29.33-52.46,85.01-46.36,123.13-8.86-3.62-63.62,80.68-67.66,106.8-25.11,2.86,4.65,4.98,24.1,6.28,25.11,2.29,1.77,33.79-8.63,52.77,8.86,16.92,15.58,7.98,40.45,12.56,47.26,5.27,7.83,32.06-6.16,49,16.24,3.25,4.3.52,12.77,6.28,19.2,6.16,6.87,73.35,28.92,70.36,35.44-5.85,2.27-10.64,6.05-16.33,8.86Z"/>
        <path class="st1" d="M1640.63,380.45c14.27.33,21.53,9.74,36.44,14.77,8.79,2.96,32.82-1.94,31.41,11.81-15.2,7.5-75.25,16.03-94.24,17.72-118.16,10.5-256.5.46-376.94,0-40.36-.16-83.53,5.05-125.65,2.95-14.72-.73-75.63,1.66-74.13-23.63,13.26,5.25,38.38-14.02,46.49-14.77,32.78-3.01,32.41,23.02,74.13-5.91,13.48,7.18,31.56,12.8,46.49,8.86,7.36-1.94,18.85-17.87,20.1-17.72,1.97.24,14.95,20.35,32.67,23.63,25.29,4.68,44.33-9.04,60.31-8.86,16.69.19,40.34,13.21,67.85,8.86,8.8-1.39,23.74-14.57,25.13-14.77,4.11-.6,48.34,8.61,62.82,8.86,14.55.25,40.94,4.83,55.28,2.95,21.92-2.87,32.75-25.17,37.69-26.58,9.5-2.71,42.2,16.57,52.77,17.72,14.67,1.59,20.17-5.93,21.36-5.91Z"/>
        <path class="st3" d="M1640.63,380.45c-1.19-.03-6.69,7.5-21.36,5.91-10.57-1.15-43.27-20.43-52.77-17.72-4.95,1.41-15.78,23.71-37.69,26.58-14.35,1.88-40.74-2.71-55.28-2.95-14.48-.25-58.71-9.46-62.82-8.86-1.39.2-16.33,13.38-25.13,14.77-27.51,4.34-51.16-8.67-67.85-8.86-15.98-.18-35.02,13.54-60.31,8.86-17.71-3.28-30.7-23.39-32.67-23.63-1.25-.15-12.75,15.78-20.1,17.72-14.93,3.94-33.01-1.68-46.49-8.86,15.82-10.97,20.83-33.28,43.98-2.95-16.1-70.82,67.45-135.51,92.98-56.12,5.53.97,4.19-22.54,17.59-26.58,22.9-6.91,31.98,14.36,35.18,14.77,2.58.33,23.06-21.98,47.75-14.77,14.81,4.33,18.55,34.67,25.13,32.49,9.3-13.89,5.18-29.74,13.82-45.78,26.81-49.73,105.99-14.27,66.59,39.87,13.91,22.05,22.05-18,35.18-23.63,44.86-19.24,44.49,47.89,47.75,50.21.44.31,4.2-5.88,5.03-5.91,16.57-.52,29.32,1.79,45.23,5.91,7.23,8.55-11.96,17.8-11.31,19.2l17.59,10.34Z"/>
      </g>
      <g>
        <path class="st3" d="M4305.68,963.87c1.41-13.75-22.62-8.85-31.41-11.81-14.91-5.02-22.17-14.44-36.44-14.77l-17.59-10.34c-.65-1.4,18.54-10.65,11.31-19.2-15.92-4.12-28.67-6.43-45.23-5.91-.83.03-4.58,6.22-5.03,5.91-3.25-2.32-2.89-69.45-47.75-50.21-13.13,5.63-21.27,45.68-35.18,23.63,39.4-54.15-39.79-89.6-66.59-39.87-8.65,16.04-4.52,31.89-13.82,45.78-6.58,2.18-10.32-28.16-25.13-32.49-24.69-7.21-45.17,15.1-47.75,14.77-3.2-.41-12.28-21.68-35.18-14.77-13.4,4.04-12.06,27.56-17.59,26.58-25.53-79.39-109.08-14.7-92.98,56.12-23.14-30.33-28.16-8.01-43.98,2.95-41.72,28.92-41.36,2.9-74.13,5.91-8.11.74-33.23,20.02-46.49,14.77.68-11.44,34.71-44.41,43.98-47.26,7.86-2.41,19.24,4.04,22.62,2.95,6.35-2.05,39.52-56.49,70.36-26.58,5.95-65.59,85.43-110.47,123.13-53.16,29.33-52.46,85.01-46.36,123.13-8.86-3.62-63.62,80.68-67.66,106.8-25.11,2.86,4.65,4.98,24.1,6.28,25.11,2.29,1.77,33.79-8.63,52.77,8.86,16.92,15.58,7.98,40.45,12.56,47.26,5.27,7.83,32.06-6.16,49,16.24,3.25,4.3.52,12.77,6.28,19.2,6.16,6.87,73.35,28.92,70.36,35.44-5.85,2.27-10.64,6.05-16.33,8.86Z"/>
        <path class="st1" d="M4237.83,937.29c14.27.33,21.53,9.74,36.44,14.77,8.79,2.96,32.82-1.94,31.41,11.81-15.2,7.5-75.25,16.03-94.24,17.72-118.16,10.5-256.5.46-376.94,0-40.36-.16-83.53,5.05-125.65,2.95-14.72-.73-75.63,1.66-74.13-23.63,13.26,5.25,38.38-14.02,46.49-14.77,32.78-3.01,32.41,23.02,74.13-5.91,13.48,7.18,31.56,12.8,46.49,8.86,7.36-1.94,18.85-17.87,20.1-17.72,1.97.24,14.95,20.35,32.67,23.63,25.29,4.68,44.33-9.04,60.31-8.86,16.69.19,40.34,13.21,67.85,8.86,8.8-1.39,23.74-14.57,25.13-14.77,4.11-.6,48.34,8.61,62.82,8.86,14.55.25,40.94,4.83,55.28,2.95,21.92-2.87,32.75-25.17,37.69-26.58,9.5-2.71,42.2,16.57,52.77,17.72,14.67,1.59,20.17-5.93,21.36-5.91Z"/>
        <path class="st3" d="M4237.83,937.29c-1.19-.03-6.69,7.5-21.36,5.91-10.57-1.15-43.27-20.43-52.77-17.72-4.95,1.41-15.78,23.71-37.69,26.58-14.35,1.88-40.74-2.71-55.28-2.95-14.48-.25-58.71-9.46-62.82-8.86-1.39.2-16.33,13.38-25.13,14.77-27.51,4.34-51.16-8.67-67.85-8.86-15.98-.18-35.02,13.54-60.31,8.86-17.71-3.28-30.7-23.39-32.67-23.63-1.25-.15-12.75,15.78-20.1,17.72-14.93,3.94-33.01-1.68-46.49-8.86,15.82-10.97,20.83-33.28,43.98-2.95-16.1-70.82,67.45-135.51,92.98-56.12,5.53.97,4.19-22.54,17.59-26.58,22.9-6.91,31.98,14.36,35.18,14.77,2.58.33,23.06-21.98,47.75-14.77,14.81,4.33,18.55,34.67,25.13,32.49,9.3-13.89,5.18-29.74,13.82-45.78,26.81-49.73,105.99-14.27,66.59,39.87,13.91,22.05,22.05-18,35.18-23.63,44.86-19.24,44.49,47.89,47.75,50.21.44.31,4.2-5.88,5.03-5.91,16.57-.52,29.32,1.79,45.23,5.91,7.23,8.55-11.96,17.8-11.31,19.2l17.59,10.34Z"/>
      </g>
      <g>
        <path class="st0" d="M5377.24,938.6c-22.13-.21-46.31-12.56-67.85,0,283.78,47.07,585.98,38.37,873.25,32.49,4.98-.1,14.23-8.84,15.08-8.86,3.56-.07,15.35,8.92,17.59,8.86,99.28-2.57,177.03-9.76,275.17-23.63-.25-9.39,3.01-10.65-6.28-11.81-12.39-1.55-45.2,8.31-60.31,8.86-53.78,1.95-143.29,2.82-193.5-14.77-6.57-2.3-26.09-18-27.64-17.72-4.13.75,5.12,9.14-2.51,14.77-13,9.59-103.12,17.49-120.62,14.77-9.83-1.53-26.12-14.79-27.64-14.77s-19.23,13.79-27.64,14.77c-43.68,5.09-122.22,3.18-140.72-53.16-9.09,20.47-.99,29.66,5.03,47.26-12.14,5.27-31.58-6.17-40.21-5.91-16.14.49-33.64,8.98-55.28,5.91-16.64-2.36-57.11-30.28-60.31-29.54-1.31.31-12.23,20.62-20.1,20.68l-2.51-11.81c-1.04,5.31-6.63,7.69-10.05,8.86-69.63,23.8-146.81,5.83-216.11,8.86-37.31,1.63-69.7,6.26-106.8,5.91Z"/>
        <path class="st3" d="M5309.39,938.6c21.54-12.56,45.72-.21,67.85,0-13.1-13.54,26.21-30.62,33.92-32.49,41-9.91,47.59,31.41,59.05-33.97l47.75-56.12c-50.91-53.47,29.73-103.29,72.88-63.5,3.16-6.58,10.44-16.1,17.59-16.24l-17.59,28.06c-19.06,48.96-29.44,98.35,28.9,112.24-48.32-59.97-22.47-150.51,55.28-127,4.16-7.4-2.25-11.56-6.28-14.77-16.15-12.81-30.74-.79-38.95-2.95-5.79-1.52-26.1-20.92-32.67-23.63-71.63-29.5-134.42,17.83-106.8,107.81-36.58,3.57-49.07,28.88-54.03,69.41-23.57-11.73-49.37-15.9-69.11,7.38-3.02,3.56-4.43,20.01-8.8,22.15-16.17,7.96-85.29-1.35-108.06,11.81-3.77,7.49,1.42,5.14,5.03,5.91,15.75,3.36,36.93,3.07,54.03,5.91Z"/>
        <path class="st3" d="M6058.25,728.9c-11.5,3.04-11.39,24.6-7.54,31.01,2.08,3.46,46.31,2.39,62.82,35.44,11.25,22.51,3.3,48.53,16.33,69.41,5.95-3.85-.43-17.24,1.26-25.11,9.02-42.03,85.56-26.59,109.31-10.34,14.98,10.25,28.08,40,30.16,41.35,2.86,1.86,52.68-5.69,65.34-2.95,7.94,1.72,16.51,14.74,17.59,14.77,1.88.05.59-5.75,2.51-5.91,12.49-1,33.7-11.59,37.69-11.81,29.83-1.64,65.95,67.41,77.9,70.89,16.47,4.8,60.03-10.99,79.16,0,30.63-3.61,60.95-3.41,91.72-2.95-16.45-11.41-50.91-17.97-72.88-20.68-16.47-2.03-98.39-.31-103.03-2.95-1.77-1.01-8.68-28.95-13.82-36.92-10.48-16.23-41.6-31.12-59.05-28.06-7.72,1.35-23.69,18.05-25.13,17.72-1.62-.37-12.04-24.13-17.59-29.54-42.36-41.24-68.81,12.92-72.88,11.81-1.74-.47-13.88-25.23-22.62-32.49-37.76-31.36-92.42-30.13-128.16,2.95,9.31-53.01-21.17-98.34-69.11-85.65Z"/>
        <g>
          <path class="st1" d="M5668.74,734.8c4.04,3.2,10.44,7.36,6.28,14.77-77.76-23.51-103.6,67.04-55.28,127-58.34-13.88-47.96-63.27-28.9-112.24.21-.54-5.12-1.16,0-11.81-43.15-39.79-123.78,10.03-72.88,63.5l-47.75,56.12c-11.46,65.38-18.06,24.06-59.05,33.97-7.72,1.87-47.03,18.95-33.92,32.49,37.1.35,69.49-4.28,106.8-5.91,69.31-3.03,146.48,14.94,216.11-8.86,3.42-1.17,9.01-3.55,10.05-8.86l2.51,11.81c7.87-.05,18.79-20.37,20.1-20.68,3.2-.75,43.67,27.17,60.31,29.54,21.65,3.07,39.15-5.42,55.28-5.91,8.63-.26,28.06,11.17,40.21,5.91-6.01-17.6-14.11-26.79-5.03-47.26,18.5,56.35,97.04,58.26,140.72,53.16,8.41-.98,26.12-14.75,27.64-14.77s17.82,13.24,27.64,14.77c17.5,2.72,107.63-5.18,120.62-14.77,7.63-5.63-1.62-14.02,2.51-14.77,1.56-.28,21.07,15.42,27.64,17.72,50.2,17.59,139.71,16.72,193.5,14.77,15.11-.55,47.92-10.41,60.31-8.86,9.29,1.16,6.03,2.42,6.28,11.81,19.95-2.82,40.29-9.46,60.31-11.81-19.13-10.99-62.69,4.8-79.16,0-11.95-3.48-48.07-72.53-77.9-70.89-3.99.22-25.2,10.82-37.69,11.81-1.92.15-.64,5.96-2.51,5.91-1.08-.03-9.65-13.05-17.59-14.77-12.66-2.74-62.48,4.82-65.34,2.95-2.08-1.35-15.18-31.1-30.16-41.35-23.75-16.25-100.3-31.69-109.31,10.34-1.69,7.86,4.69,21.25-1.26,25.11-13.03-20.88-5.09-46.9-16.33-69.41-16.51-33.06-60.75-31.99-62.82-35.44-3.85-6.41-3.96-27.97,7.54-31.01,8.65-49.13-39.79-66.1-72.88-57.59,40.98-85.85-37.61-165.15-104.29-181.65-146.96-36.36-235.41,77.66-212.34,245.15Z"/>
          <path class="st1" d="M5898.68,595.99c-17.67-3.1-48.89,3.76-62.82,17.72-16.36,16.39-44.82,76.05-56.54,98.94l40.21-44.3c4.62-53.34,57.59-67.8,96.75-57.59-2.11-14.11-14.08-8.61-15.08-8.86-2.05-.52-.49-5.55-2.51-5.91Z"/>
        </g>
        <path class="st0" d="M5590.84,752.53c-5.12,10.65.21,11.28,0,11.81l17.59-28.06c-7.15.14-14.43,9.67-17.59,16.24Z"/>
      </g>
      <g>
        <path class="st3" d="M5558.11,343.91c1.41-13.75-22.62-8.85-31.41-11.81-14.91-5.02-22.17-14.44-36.44-14.77l-17.59-10.34c-.65-1.4,18.54-10.65,11.31-19.2-15.92-4.12-28.67-6.43-45.23-5.91-.83.03-4.58,6.22-5.03,5.91-3.25-2.32-2.89-69.45-47.75-50.21-13.13,5.63-21.27,45.68-35.18,23.63,39.4-54.15-39.79-89.6-66.59-39.87-8.65,16.04-4.52,31.89-13.82,45.78-6.58,2.18-10.32-28.16-25.13-32.49-24.69-7.21-45.17,15.1-47.75,14.77-3.2-.41-12.28-21.68-35.18-14.77-13.4,4.04-12.06,27.56-17.59,26.58-25.53-79.39-109.08-14.7-92.98,56.12-23.14-30.33-28.16-8.01-43.98,2.95-41.72,28.92-41.36,2.9-74.13,5.91-8.11.74-33.23,20.02-46.49,14.77.68-11.44,34.71-44.41,43.98-47.26,7.86-2.41,19.24,4.04,22.62,2.95,6.35-2.05,39.52-56.49,70.36-26.58,5.95-65.59,85.43-110.47,123.13-53.16,29.33-52.46,85.01-46.36,123.13-8.86-3.62-63.62,80.68-67.66,106.8-25.11,2.86,4.65,4.98,24.1,6.28,25.11,2.29,1.77,33.79-8.63,52.77,8.86,16.92,15.58,7.98,40.45,12.56,47.26,5.27,7.83,32.06-6.16,49,16.24,3.25,4.3.52,12.77,6.28,19.2,6.16,6.87,73.35,28.92,70.36,35.44-5.85,2.27-10.64,6.05-16.33,8.86Z"/>
        <path class="st1" d="M5490.26,317.32c14.27.33,21.53,9.74,36.44,14.77,8.79,2.96,32.82-1.94,31.41,11.81-15.2,7.5-75.25,16.03-94.24,17.72-118.16,10.5-256.5.46-376.94,0-40.36-.16-83.53,5.05-125.65,2.95-14.72-.73-75.63,1.66-74.13-23.63,13.26,5.25,38.38-14.02,46.49-14.77,32.78-3.01,32.41,23.02,74.13-5.91,13.48,7.18,31.56,12.8,46.49,8.86,7.36-1.94,18.85-17.87,20.1-17.72,1.97.24,14.95,20.35,32.67,23.63,25.29,4.68,44.33-9.04,60.31-8.86,16.69.19,40.34,13.21,67.85,8.86,8.8-1.39,23.74-14.57,25.13-14.77,4.11-.6,48.34,8.61,62.82,8.86,14.55.25,40.94,4.83,55.28,2.95,21.92-2.87,32.75-25.17,37.69-26.58,9.5-2.71,42.2,16.57,52.77,17.72,14.67,1.59,20.17-5.93,21.36-5.91Z"/>
        <path class="st3" d="M5490.26,317.32c-1.19-.03-6.69,7.5-21.36,5.91-10.57-1.15-43.27-20.43-52.77-17.72-4.95,1.41-15.78,23.71-37.69,26.58-14.35,1.88-40.74-2.71-55.28-2.95-14.48-.25-58.71-9.46-62.82-8.86-1.39.2-16.33,13.38-25.13,14.77-27.51,4.34-51.16-8.67-67.85-8.86-15.98-.18-35.02,13.54-60.31,8.86-17.71-3.28-30.7-23.39-32.67-23.63-1.25-.15-12.75,15.78-20.1,17.72-14.93,3.94-33.01-1.68-46.49-8.86,15.82-10.97,20.83-33.28,43.98-2.95-16.1-70.82,67.45-135.51,92.98-56.12,5.53.97,4.19-22.54,17.59-26.58,22.9-6.91,31.98,14.36,35.18,14.77,2.58.33,23.06-21.98,47.75-14.77,14.81,4.33,18.55,34.67,25.13,32.49,9.3-13.89,5.18-29.74,13.82-45.78,26.81-49.73,105.99-14.27,66.59,39.87,13.91,22.05,22.05-18,35.18-23.63,44.86-19.24,44.49,47.89,47.75,50.21.44.31,4.2-5.88,5.03-5.91,16.57-.52,29.32,1.79,45.23,5.91,7.23,8.55-11.96,17.8-11.31,19.2l17.59,10.34Z"/>
      </g>
      <g>
        <path class="st0" d="M4271.36,396.35c22.13-.21,46.31-12.56,67.85,0-283.78,47.07-585.98,38.37-873.25,32.49-4.98-.1-14.23-8.84-15.08-8.86-3.56-.07-15.35,8.92-17.59,8.86-99.28-2.57-177.03-9.76-275.17-23.63.25-9.39-3.01-10.65,6.28-11.81,12.39-1.55,45.2,8.31,60.31,8.86,53.78,1.95,143.29,2.82,193.5-14.77,6.57-2.3,26.09-18,27.64-17.72,4.13.75-5.12,9.14,2.51,14.77,13,9.59,103.12,17.49,120.62,14.77,9.83-1.53,26.12-14.79,27.64-14.77s19.23,13.79,27.64,14.77c43.68,5.09,122.22,3.18,140.72-53.16,9.09,20.47.99,29.66-5.03,47.26,12.14,5.27,31.58-6.17,40.21-5.91,16.14.49,33.64,8.98,55.28,5.91,16.64-2.36,57.11-30.28,60.31-29.54,1.31.31,12.23,20.62,20.1,20.68l2.51-11.81c1.04,5.31,6.63,7.69,10.05,8.86,69.63,23.8,146.81,5.83,216.11,8.86,37.31,1.63,69.7,6.26,106.8,5.91Z"/>
        <path class="st3" d="M4339.21,396.35c-21.54-12.56-45.72-.21-67.85,0,13.1-13.54-26.21-30.62-33.92-32.49-41-9.91-47.59,31.41-59.05-33.97l-47.75-56.12c50.91-53.47-29.73-103.29-72.88-63.5-3.16-6.58-10.44-16.1-17.59-16.24l17.59,28.06c19.06,48.96,29.44,98.35-28.9,112.24,48.32-59.97,22.47-150.51-55.28-127-4.16-7.4,2.25-11.56,6.28-14.77,16.15-12.81,30.74-.79,38.95-2.95,5.79-1.52,26.1-20.92,32.67-23.63,71.63-29.5,134.42,17.83,106.8,107.81,36.58,3.57,49.07,28.88,54.03,69.41,23.57-11.73,49.37-15.9,69.11,7.38,3.02,3.56,4.43,20.01,8.8,22.15,16.17,7.96,85.29-1.35,108.06,11.81,3.77,7.49-1.42,5.14-5.03,5.91-15.75,3.36-36.93,3.07-54.03,5.91Z"/>
        <path class="st3" d="M3590.35,186.65c11.5,3.04,11.39,24.6,7.54,31.01-2.08,3.46-46.31,2.39-62.82,35.44-11.25,22.51-3.3,48.53-16.33,69.41-5.95-3.85.43-17.24-1.26-25.11-9.02-42.03-85.56-26.59-109.31-10.34-14.98,10.25-28.08,40-30.16,41.35-2.86,1.86-52.68-5.69-65.34-2.95-7.94,1.72-16.51,14.74-17.59,14.77-1.88.05-.59-5.75-2.51-5.91-12.49-1-33.7-11.59-37.69-11.81-29.83-1.64-65.95,67.41-77.9,70.89-16.47,4.8-60.03-10.99-79.16,0-30.63-3.61-60.95-3.41-91.72-2.95,16.45-11.41,50.91-17.97,72.88-20.68,16.47-2.03,98.39-.31,103.03-2.95,1.77-1.01,8.68-28.95,13.82-36.92,10.48-16.23,41.6-31.12,59.05-28.06,7.72,1.35,23.69,18.05,25.13,17.72,1.62-.37,12.04-24.13,17.59-29.54,42.36-41.24,68.81,12.92,72.88,11.81,1.74-.47,13.88-25.23,22.62-32.49,37.76-31.36,92.42-30.13,128.16,2.95-9.31-53.01,21.17-98.34,69.11-85.65Z"/>
        <g>
          <path class="st1" d="M3979.86,192.55c-4.04,3.2-10.44,7.36-6.28,14.77,77.76-23.51,103.6,67.04,55.28,127,58.34-13.88,47.96-63.27,28.9-112.24-.21-.54,5.12-1.16,0-11.81,43.15-39.79,123.78,10.03,72.88,63.5l47.75,56.12c11.46,65.38,18.06,24.06,59.05,33.97,7.72,1.87,47.03,18.95,33.92,32.49-37.1.35-69.49-4.28-106.8-5.91-69.31-3.03-146.48,14.94-216.11-8.86-3.42-1.17-9.01-3.55-10.05-8.86l-2.51,11.81c-7.87-.05-18.79-20.37-20.1-20.68-3.2-.75-43.67,27.17-60.31,29.54-21.65,3.07-39.15-5.42-55.28-5.91-8.63-.26-28.06,11.17-40.21,5.91,6.01-17.6,14.11-26.79,5.03-47.26-18.5,56.35-97.04,58.26-140.72,53.16-8.41-.98-26.12-14.75-27.64-14.77s-17.82,13.24-27.64,14.77c-17.5,2.72-107.63-5.18-120.62-14.77-7.63-5.63,1.62-14.02-2.51-14.77-1.56-.28-21.07,15.42-27.64,17.72-50.2,17.59-139.71,16.72-193.5,14.77-15.11-.55-47.92-10.41-60.31-8.86-9.29,1.16-6.03,2.42-6.28,11.81-19.95-2.82-40.29-9.46-60.31-11.81,19.13-10.99,62.69,4.8,79.16,0,11.95-3.48,48.07-72.53,77.9-70.89,3.99.22,25.2,10.82,37.69,11.81,1.92.15.64,5.96,2.51,5.91,1.08-.03,9.65-13.05,17.59-14.77,12.66-2.74,62.48,4.82,65.34,2.95,2.08-1.35,15.18-31.1,30.16-41.35,23.75-16.25,100.3-31.69,109.31,10.34,1.69,7.86-4.69,21.25,1.26,25.11,13.03-20.88,5.09-46.9,16.33-69.41,16.51-33.06,60.75-31.99,62.82-35.44,3.85-6.41,3.96-27.97-7.54-31.01-8.65-49.13,39.79-66.1,72.88-57.59-40.98-85.85,37.61-165.15,104.29-181.65,146.96-36.36,235.41,77.66,212.34,245.15Z"/>
          <path class="st1" d="M3749.92,53.74c17.67-3.1,48.89,3.76,62.82,17.72,16.36,16.39,44.82,76.05,56.54,98.94l-40.21-44.3c-4.62-53.34-57.59-67.8-96.75-57.59,2.11-14.11,14.08-8.61,15.08-8.86,2.05-.52.49-5.55,2.51-5.91Z"/>
        </g>
        <path class="st0" d="M4057.76,210.28c5.12,10.65-.21,11.28,0,11.81l-17.59-28.06c7.15.14,14.43,9.67,17.59,16.24Z"/>
      </g>
    </g>
  </g>
</svg>