<svg version="1.2" xmlns="http://www.w3.org/2000/svg" viewBox="0 0 331 71" width="300" height="64"><style>.a{fill:#006e22}</style><path class="a" d="m1.4 70q-1 0-1-1v-68q0-1 1-1h5.1q1 0 1 1v68q0 1-1 1zm44.5-51.3q8 0 12.7 4.7 4.8 4.7 4.8 12.6v33q0 1-1 1h-5.1q-1 0-1-1v-31.6q0-5.5-3.4-9-3.3-3.5-8.6-3.5-5.5 0-8.9 3.4-3.4 3.4-3.4 8.9v31.8q0 1-1 1h-5.1q-1 0-1-1v-48.6q0-1 1-1h5.1q1 0 1 1v4.3q0 0.2 0.1 0.3 0.2 0.1 0.3-0.1 4.4-6.2 13.5-6.2zm55.6 5.6q0 1-1 1h-11.3q-0.4 0-0.4 0.4v29.5q0 4.8 2.1 6.8 2.2 1.9 6.8 1.9h2.5q1 0 1 1v4.1q0 1-1 1-1.2 0.1-3.7 0.1-7.2 0-10.9-2.7-3.7-2.7-3.7-10v-31.7q0-0.4-0.4-0.4h-6.1q-1 0-1-1v-3.9q0-1 1-1h6.1q0.4 0 0.4-0.4v-11.6q0-1 1-1h4.9q1 0 1 1v11.6q0 0.4 0.4 0.4h11.3q1 0 1 1zm34.1-5.4q3.3 0 5.7 1.3 0.8 0.4 0.6 1.3l-1.1 4.9q-0.3 1-1.3 0.6-1.7-0.7-3.9-0.7l-1.3 0.1q-5.2 0.2-8.6 3.9-3.4 3.6-3.4 9.2v29.5q0 1-1 1h-5.1q-1 0-1-1v-48.6q0-1 1-1h5.1q1 0 1 1v6.1q0 0.3 0.1 0.4 0.2 0 0.3-0.2 2.1-3.7 5.3-5.7 3.3-2.1 7.6-2.1zm33.3-0.3q9 0 13.9 4.6 4.9 4.6 4.9 12.2v33.6q0 1-1 1h-5.1q-1 0-1-1v-4.1q0-0.2-0.2-0.3-0.1-0.1-0.3 0.1-2.5 3-6.5 4.6-4 1.5-8.9 1.5-7.1 0-11.9-3.6-4.8-3.6-4.8-11 0-7.5 5.4-11.8 5.5-4.4 15.2-4.4h11.6q0.4 0 0.4-0.4v-3.8q0-5.1-2.9-8-2.8-3-8.8-3-4.8 0-7.8 1.9-3 1.8-3.7 5.1-0.3 1-1.2 0.9l-5.4-0.7q-1.1-0.2-0.9-0.8 0.8-5.6 6-9.1 5.2-3.5 13-3.5zm-2.8 46.1q5.9 0 10.2-2.9 4.3-3 4.3-8v-7.8q0-0.4-0.4-0.4h-10.5q-6.6 0-10.6 2.7-4 2.7-4 7.5 0 4.4 3 6.7 3.1 2.2 8 2.2zm57.4-46q8 0 12.7 4.7 4.8 4.7 4.8 12.6v33q0 1-1 1h-5.1q-1 0-1-1v-31.6q0-5.5-3.4-9-3.3-3.5-8.6-3.5-5.5 0-8.9 3.4-3.4 3.4-3.4 8.9v31.8q0 1-1 1h-5.1q-1 0-1-1v-48.6q0-1 1-1h5.1q1 0 1 1v4.3q0 0.2 0.1 0.3 0.2 0.1 0.3-0.1 4.4-6.2 13.5-6.2zm71 17.5q0.4 2.8 0.4 7v3.2q0 1-1 1h-32.3q-0.4 0-0.4 0.4 0.2 5.5 0.6 7.1 1.1 4.5 4.7 7.1 3.6 2.6 9.2 2.6 4.2 0 7.4-1.9 3.2-1.9 5-5.4 0.6-0.9 1.4-0.4l3.9 2.3q0.8 0.5 0.4 1.4-2.5 4.8-7.5 7.6-5 2.7-11.5 2.7-7.1-0.1-11.9-3.4-4.8-3.3-6.9-9.2-1.8-4.8-1.8-13.8 0-4.2 0.1-6.8 0.2-2.7 0.8-4.8 1.7-6.5 6.8-10.4 5.2-3.9 12.5-3.9 9.1 0 14 4.6 4.9 4.6 6.1 13zm-20.1-11.4q-4.9 0-8.2 2.6-3.2 2.5-4.2 6.8-0.6 2.1-0.8 6.8 0 0.4 0.4 0.4h25.9q0.4 0 0.4-0.4-0.2-4.5-0.6-6.4-1.1-4.5-4.5-7.1-3.3-2.7-8.4-2.7zm56.6-0.5q0 1-1 1h-11.3q-0.4 0-0.4 0.4v29.5q0 4.8 2.1 6.8 2.2 1.9 6.8 1.9h2.5q1 0 1 1v4.1q0 1-1 1-1.2 0.1-3.7 0.1-7.2 0-10.9-2.7-3.7-2.7-3.7-10v-31.7q0-0.4-0.4-0.4h-6.1q-1 0-1-1v-3.9q0-1 1-1h6.1q0.4 0 0.4-0.4v-11.6q0-1 1-1h4.9q1 0 1 1v11.6q0 0.4 0.4 0.4h11.3q1 0 1 1z"/></svg>